# xmcd
# 
# Track frame offsets:
#     150
#     15411
#     27693
#     42659
#     58072
#     77527
#     96805
#     121688
#     136830
#     154703
#     171497
#     187897
# 
# Disc length: 2690
# 
# Revision: 2
# Processed by: cddbd v1.5.2PL0 Copyright (c) Steve Scherf et al.
# Submitted via: fre:ac v1.0.17
# 
DISCID=950a800c
DTITLE=Latin - 花まつりアンデスを聴く
DYEAR=0
DGENRE=Country
TTITLE0=チンバローマ〜サン・ファニート４
TTITLE1=花まつり
TTITLE2=ディアブラーダス
TTITLE3=アンデスの祭り
TTITLE4=エン・ウナ・タルデ（歌入り）
TTITLE5=ラ・ゲーラ
TTITLE6=美しい花（歌入り）
TTITLE7=シクーリ・アーヤル
TTITLE8=ロシオ・アンディーノ
TTITLE9=我々の自由
TTITLE10=アウセンテ
TTITLE11=黄金のトゥミ
EXTD=
EXTT0=
EXTT1=
EXTT2=
EXTT3=
EXTT4=
EXTT5=
EXTT6=
EXTT7=
EXTT8=
EXTT9=
EXTT10=
EXTT11=
PLAYORDER=
